<svg xmlns="http://www.w3.org/2000/svg" xmlns:xlink="http://www.w3.org/1999/xlink" width="500" zoomAndPan="magnify" viewBox="0 0 375 374.999991" height="500" preserveAspectRatio="xMidYMid meet" version="1.0"><defs><clipPath id="e683255f6d"><path d="M 16 22 L 356 22 L 356 362.34375 L 16 362.34375 Z M 16 22 " clip-rule="nonzero"/></clipPath></defs><g clip-path="url(#e683255f6d)"><path fill="#4042e2" d="M 186.339844 362.34375 C 183.914062 362.34375 181.492188 362.289062 179.070312 362.183594 C 176.644531 362.078125 174.226562 361.921875 171.8125 361.710938 C 169.394531 361.503906 166.984375 361.242188 164.578125 360.929688 C 162.175781 360.617188 159.777344 360.253906 157.390625 359.839844 C 155 359.421875 152.621094 358.957031 150.25 358.441406 C 147.882812 357.925781 145.523438 357.355469 143.179688 356.738281 C 140.835938 356.121094 138.503906 355.453125 136.1875 354.734375 C 133.871094 354.019531 131.570312 353.25 129.289062 352.433594 C 127.003906 351.621094 124.738281 350.753906 122.492188 349.839844 C 120.246094 348.929688 118.019531 347.96875 115.816406 346.960938 C 113.609375 345.949219 111.425781 344.894531 109.265625 343.792969 C 107.105469 342.691406 104.972656 341.542969 102.859375 340.351562 C 100.75 339.15625 98.664062 337.917969 96.605469 336.636719 C 94.546875 335.355469 92.519531 334.027344 90.519531 332.660156 C 88.515625 331.289062 86.546875 329.878906 84.605469 328.421875 C 82.664062 326.96875 80.753906 325.476562 78.878906 323.9375 C 77 322.402344 75.160156 320.828125 73.351562 319.214844 C 71.539062 317.597656 69.765625 315.945312 68.027344 314.257812 C 66.289062 312.566406 64.589844 310.839844 62.921875 309.074219 C 61.257812 307.3125 59.632812 305.511719 58.046875 303.679688 C 56.457031 301.847656 54.910156 299.980469 53.402344 298.082031 C 51.894531 296.183594 50.429688 294.25 49.003906 292.289062 C 47.578125 290.328125 46.195312 288.335938 44.855469 286.3125 C 43.515625 284.292969 42.222656 282.242188 40.96875 280.167969 C 39.71875 278.089844 38.511719 275.988281 37.347656 273.859375 C 36.1875 271.730469 35.070312 269.578125 34.003906 267.402344 C 32.933594 265.226562 31.910156 263.027344 30.933594 260.804688 C 29.957031 258.585938 29.03125 256.347656 28.152344 254.085938 C 27.273438 251.828125 26.441406 249.550781 25.660156 247.253906 C 24.878906 244.957031 24.144531 242.648438 23.460938 240.320312 C 22.777344 237.992188 22.144531 235.652344 21.5625 233.300781 C 20.980469 230.945312 20.449219 228.582031 19.964844 226.203125 C 19.484375 223.828125 19.054688 221.441406 18.675781 219.046875 C 18.296875 216.652344 17.96875 214.25 17.691406 211.839844 C 17.414062 209.429688 17.191406 207.015625 17.015625 204.597656 C 16.84375 202.179688 16.722656 199.757812 16.652344 197.332031 C 16.582031 194.910156 16.566406 192.484375 16.601562 190.058594 C 16.636719 187.636719 16.722656 185.210938 16.859375 182.792969 C 16.996094 180.371094 17.1875 177.953125 17.429688 175.539062 C 17.671875 173.128906 17.964844 170.722656 18.308594 168.320312 C 18.652344 165.921875 19.050781 163.527344 19.496094 161.144531 C 19.945312 158.761719 20.441406 156.390625 20.992188 154.027344 C 21.539062 151.664062 22.140625 149.316406 22.789062 146.980469 C 23.4375 144.644531 24.136719 142.320312 24.886719 140.015625 C 25.636719 137.707031 26.433594 135.417969 27.28125 133.148438 C 28.125 130.875 29.023438 128.621094 29.964844 126.386719 C 30.910156 124.152344 31.898438 121.941406 32.9375 119.75 C 33.976562 117.558594 35.058594 115.390625 36.191406 113.246094 C 37.320312 111.097656 38.5 108.980469 39.71875 106.886719 C 40.941406 104.789062 42.207031 102.722656 43.519531 100.683594 C 44.828125 98.640625 46.183594 96.628906 47.578125 94.648438 C 48.976562 92.664062 50.414062 90.714844 51.894531 88.792969 C 53.375 86.871094 54.894531 84.984375 56.453125 83.128906 C 58.015625 81.273438 59.617188 79.449219 61.253906 77.664062 C 62.894531 75.875 64.570312 74.125 66.285156 72.410156 C 67.996094 70.691406 69.746094 69.015625 71.535156 67.375 C 73.320312 65.734375 75.140625 64.132812 76.992188 62.570312 C 78.847656 61.007812 80.734375 59.484375 82.65625 58.003906 C 84.574219 56.523438 86.523438 55.082031 88.507812 53.683594 C 90.488281 52.285156 92.496094 50.929688 94.535156 49.617188 C 96.574219 48.304688 98.640625 47.039062 100.734375 45.8125 C 102.828125 44.589844 104.949219 43.410156 107.09375 42.277344 C 109.238281 41.144531 111.402344 40.058594 113.59375 39.019531 C 115.785156 37.980469 117.996094 36.988281 120.230469 36.042969 C 122.789062 34.964844 125.375 33.953125 127.984375 33.007812 C 130.59375 32.058594 133.222656 31.175781 135.875 30.355469 C 138.527344 29.535156 141.199219 28.78125 143.890625 28.09375 C 146.578125 27.40625 149.285156 26.785156 152.003906 26.226562 C 154.722656 25.671875 157.457031 25.183594 160.199219 24.761719 C 162.945312 24.339844 165.699219 23.984375 168.457031 23.699219 C 171.21875 23.414062 173.988281 23.195312 176.757812 23.042969 C 179.53125 22.890625 182.304688 22.808594 185.082031 22.792969 C 187.859375 22.777344 190.632812 22.832031 193.40625 22.953125 C 196.179688 23.074219 198.949219 23.261719 201.714844 23.519531 C 204.476562 23.777344 207.234375 24.101562 209.984375 24.492188 C 212.730469 24.882812 215.46875 25.34375 218.195312 25.867188 C 220.921875 26.394531 223.632812 26.988281 226.328125 27.648438 C 229.023438 28.304688 231.703125 29.03125 234.367188 29.820312 C 237.027344 30.613281 239.667969 31.464844 242.285156 32.386719 C 244.90625 33.304688 247.5 34.289062 250.074219 35.335938 C 252.644531 36.382812 255.1875 37.492188 257.707031 38.664062 C 260.222656 39.835938 262.707031 41.070312 265.164062 42.363281 C 267.621094 43.65625 270.042969 45.011719 272.433594 46.421875 C 274.824219 47.835938 277.179688 49.304688 279.496094 50.835938 C 281.816406 52.363281 284.09375 53.945312 286.332031 55.585938 C 288.574219 57.226562 290.773438 58.917969 292.929688 60.667969 C 295.085938 62.414062 297.199219 64.214844 299.269531 66.066406 C 301.339844 67.914062 303.359375 69.816406 305.335938 71.765625 C 307.3125 73.71875 309.238281 75.714844 311.117188 77.757812 C 312.996094 79.804688 314.820312 81.894531 316.597656 84.027344 C 318.371094 86.164062 320.09375 88.339844 321.765625 90.558594 C 323.433594 92.777344 325.046875 95.035156 326.605469 97.332031 C 328.160156 99.628906 329.664062 101.964844 331.105469 104.335938 C 332.550781 106.707031 333.933594 109.113281 335.261719 111.554688 C 336.585938 113.992188 337.851562 116.460938 339.054688 118.964844 C 340.257812 121.464844 341.402344 123.996094 342.484375 126.550781 C 343.5625 129.109375 344.578125 131.691406 345.535156 134.300781 C 346.488281 136.90625 347.378906 139.535156 348.203125 142.1875 C 349.027344 144.835938 349.785156 147.507812 350.480469 150.195312 C 351.175781 152.882812 351.800781 155.585938 352.363281 158.304688 C 352.925781 161.023438 353.421875 163.753906 353.847656 166.5 C 354.273438 169.242188 354.636719 171.992188 354.929688 174.753906 C 355.222656 177.515625 355.445312 180.28125 355.601562 183.054688 C 355.761719 185.824219 355.847656 188.597656 355.871094 191.375 C 355.890625 194.152344 355.84375 196.925781 355.730469 199.699219 C 355.613281 202.472656 355.429688 205.242188 355.179688 208.007812 C 354.929688 210.773438 354.609375 213.53125 354.226562 216.28125 C 353.839844 219.027344 353.386719 221.765625 352.867188 224.496094 C 352.34375 227.222656 351.757812 229.933594 351.105469 232.632812 C 350.453125 235.332031 349.734375 238.011719 348.949219 240.675781 C 348.164062 243.335938 347.316406 245.980469 346.398438 248.601562 C 345.484375 251.222656 344.507812 253.820312 343.464844 256.394531 C 342.425781 258.96875 341.320312 261.511719 340.15625 264.03125 C 338.988281 266.550781 337.761719 269.042969 336.472656 271.5 C 335.183594 273.960938 333.835938 276.386719 332.429688 278.777344 C 331.019531 281.171875 329.554688 283.527344 328.03125 285.851562 C 326.511719 288.171875 324.929688 290.453125 323.296875 292.699219 C 321.660156 294.941406 319.972656 297.144531 318.230469 299.304688 C 316.488281 301.464844 314.691406 303.582031 312.84375 305.65625 C 311 307.730469 309.101562 309.753906 307.15625 311.734375 C 305.210938 313.714844 303.214844 315.648438 301.175781 317.527344 C 299.136719 319.410156 297.050781 321.242188 294.917969 323.023438 C 292.789062 324.804688 290.617188 326.53125 288.402344 328.203125 C 286.183594 329.875 283.929688 331.496094 281.636719 333.058594 C 279.339844 334.621094 277.011719 336.125 274.640625 337.574219 C 272.273438 339.023438 269.871094 340.414062 267.433594 341.746094 C 264.996094 343.074219 262.53125 344.34375 260.03125 345.554688 C 257.53125 346.765625 255.007812 347.914062 252.449219 349 C 241.992188 353.421875 231.199219 356.757812 220.070312 359.003906 C 208.9375 361.253906 197.695312 362.363281 186.339844 362.34375 Z M 186.339844 46.84375 C 183.957031 46.84375 181.574219 46.902344 179.195312 47.019531 C 176.816406 47.136719 174.441406 47.3125 172.070312 47.546875 C 169.695312 47.78125 167.332031 48.074219 164.976562 48.425781 C 162.617188 48.777344 160.269531 49.183594 157.933594 49.648438 C 155.597656 50.113281 153.273438 50.636719 150.960938 51.21875 C 148.648438 51.796875 146.355469 52.433594 144.074219 53.125 C 141.792969 53.816406 139.53125 54.566406 137.289062 55.367188 C 135.046875 56.171875 132.824219 57.03125 130.621094 57.941406 C 128.421875 58.855469 126.242188 59.820312 124.089844 60.839844 C 121.933594 61.859375 119.808594 62.933594 117.707031 64.054688 C 115.605469 65.179688 113.53125 66.355469 111.488281 67.582031 C 109.445312 68.804688 107.433594 70.082031 105.449219 71.40625 C 103.46875 72.730469 101.523438 74.101562 99.609375 75.523438 C 97.695312 76.941406 95.816406 78.410156 93.976562 79.921875 C 92.132812 81.433594 90.332031 82.988281 88.566406 84.589844 C 86.800781 86.191406 85.074219 87.832031 83.390625 89.519531 C 81.707031 91.203125 80.0625 92.929688 78.464844 94.695312 C 76.863281 96.460938 75.308594 98.265625 73.796875 100.109375 C 72.285156 101.953125 70.820312 103.828125 69.402344 105.742188 C 67.980469 107.660156 66.609375 109.605469 65.285156 111.589844 C 63.960938 113.570312 62.6875 115.582031 61.464844 117.625 C 60.238281 119.671875 59.066406 121.742188 57.941406 123.84375 C 56.820312 125.949219 55.75 128.074219 54.730469 130.230469 C 53.710938 132.382812 52.746094 134.5625 51.835938 136.765625 C 50.921875 138.964844 50.066406 141.1875 49.265625 143.433594 C 48.460938 145.675781 47.714844 147.9375 47.023438 150.21875 C 46.332031 152.5 45.695312 154.796875 45.117188 157.105469 C 44.539062 159.417969 44.019531 161.742188 43.554688 164.082031 C 43.089844 166.417969 42.683594 168.765625 42.332031 171.121094 C 41.984375 173.480469 41.691406 175.84375 41.457031 178.214844 C 41.226562 180.585938 41.050781 182.964844 40.933594 185.34375 C 40.816406 187.722656 40.757812 190.105469 40.757812 192.488281 C 40.757812 194.871094 40.816406 197.253906 40.933594 199.632812 C 41.050781 202.011719 41.226562 204.386719 41.460938 206.761719 C 41.695312 209.132812 41.988281 211.496094 42.335938 213.851562 C 42.6875 216.210938 43.09375 218.558594 43.558594 220.894531 C 44.023438 223.230469 44.546875 225.554688 45.125 227.867188 C 45.707031 230.179688 46.339844 232.476562 47.03125 234.753906 C 47.726562 237.035156 48.472656 239.296875 49.273438 241.542969 C 50.078125 243.785156 50.933594 246.007812 51.847656 248.210938 C 52.757812 250.410156 53.726562 252.589844 54.742188 254.742188 C 55.761719 256.898438 56.835938 259.023438 57.957031 261.125 C 59.082031 263.226562 60.253906 265.300781 61.480469 267.34375 C 62.707031 269.390625 63.980469 271.402344 65.304688 273.382812 C 66.628906 275.363281 68 277.3125 69.417969 279.226562 C 70.839844 281.140625 72.304688 283.019531 73.816406 284.859375 C 75.328125 286.703125 76.882812 288.507812 78.484375 290.273438 C 80.085938 292.039062 81.726562 293.761719 83.414062 295.449219 C 85.097656 297.132812 86.824219 298.777344 88.589844 300.375 C 90.355469 301.976562 92.160156 303.53125 94 305.042969 C 95.84375 306.554688 97.722656 308.019531 99.636719 309.441406 C 101.550781 310.859375 103.496094 312.230469 105.476562 313.554688 C 107.460938 314.878906 109.472656 316.15625 111.515625 317.378906 C 113.558594 318.605469 115.632812 319.78125 117.734375 320.902344 C 119.835938 322.027344 121.964844 323.097656 124.117188 324.117188 C 126.273438 325.136719 128.449219 326.101562 130.652344 327.011719 C 132.851562 327.925781 135.074219 328.78125 137.320312 329.585938 C 139.5625 330.386719 141.824219 331.136719 144.105469 331.828125 C 146.386719 332.519531 148.679688 333.15625 150.992188 333.734375 C 153.304688 334.3125 155.628906 334.835938 157.964844 335.300781 C 160.304688 335.765625 162.648438 336.171875 165.007812 336.523438 C 167.363281 336.875 169.730469 337.164062 172.101562 337.398438 C 174.472656 337.632812 176.847656 337.808594 179.226562 337.925781 C 181.609375 338.042969 183.988281 338.101562 186.371094 338.101562 C 188.753906 338.101562 191.136719 338.042969 193.515625 337.925781 C 195.898438 337.808594 198.273438 337.636719 200.644531 337.402344 C 203.015625 337.167969 205.382812 336.878906 207.738281 336.527344 C 210.09375 336.179688 212.441406 335.773438 214.78125 335.308594 C 217.117188 334.84375 219.441406 334.320312 221.753906 333.742188 C 224.066406 333.164062 226.359375 332.527344 228.640625 331.835938 C 230.921875 331.144531 233.183594 330.398438 235.429688 329.597656 C 237.671875 328.792969 239.894531 327.9375 242.097656 327.027344 C 244.296875 326.113281 246.476562 325.148438 248.628906 324.128906 C 250.785156 323.113281 252.914062 322.042969 255.015625 320.917969 C 257.117188 319.796875 259.191406 318.621094 261.234375 317.398438 C 263.277344 316.171875 265.292969 314.898438 267.273438 313.574219 C 269.253906 312.25 271.203125 310.878906 273.117188 309.460938 C 275.03125 308.039062 276.910156 306.574219 278.75 305.0625 C 280.59375 303.554688 282.398438 301.996094 284.164062 300.398438 C 285.929688 298.796875 287.65625 297.15625 289.339844 295.46875 C 291.027344 293.785156 292.671875 292.0625 294.269531 290.296875 C 295.871094 288.53125 297.429688 286.726562 298.941406 284.886719 C 300.453125 283.042969 301.917969 281.164062 303.339844 279.25 C 304.757812 277.339844 306.128906 275.390625 307.457031 273.410156 C 308.78125 271.429688 310.054688 269.417969 311.28125 267.371094 C 312.507812 265.328125 313.679688 263.257812 314.804688 261.15625 C 315.929688 259.054688 317 256.925781 318.019531 254.773438 C 319.039062 252.617188 320.003906 250.441406 320.917969 248.238281 C 321.832031 246.039062 322.6875 243.816406 323.492188 241.570312 C 324.296875 239.328125 325.042969 237.066406 325.734375 234.785156 C 326.429688 232.507812 327.0625 230.210938 327.644531 227.898438 C 328.222656 225.585938 328.746094 223.261719 329.210938 220.925781 C 329.675781 218.589844 330.085938 216.242188 330.433594 213.886719 C 330.785156 211.527344 331.078125 209.164062 331.3125 206.792969 C 331.546875 204.421875 331.722656 202.046875 331.839844 199.664062 C 331.957031 197.285156 332.015625 194.902344 332.019531 192.519531 C 332.015625 190.136719 331.957031 187.753906 331.835938 185.375 C 331.71875 182.992188 331.539062 180.617188 331.304688 178.246094 C 331.070312 175.875 330.777344 173.507812 330.425781 171.152344 C 330.074219 168.792969 329.664062 166.445312 329.199219 164.109375 C 328.730469 161.769531 328.207031 159.445312 327.628906 157.136719 C 327.046875 154.824219 326.410156 152.527344 325.714844 150.246094 C 325.023438 147.964844 324.273438 145.703125 323.472656 143.460938 C 322.667969 141.214844 321.808594 138.992188 320.894531 136.792969 C 319.980469 134.589844 319.015625 132.410156 317.996094 130.257812 C 316.976562 128.101562 315.902344 125.976562 314.777344 123.875 C 313.65625 121.773438 312.480469 119.699219 311.253906 117.65625 C 310.027344 115.609375 308.753906 113.597656 307.425781 111.617188 C 306.101562 109.636719 304.730469 107.6875 303.308594 105.773438 C 301.890625 103.859375 300.425781 101.980469 298.910156 100.136719 C 297.398438 98.296875 295.84375 96.492188 294.242188 94.726562 C 292.640625 92.960938 291 91.234375 289.3125 89.546875 C 287.628906 87.863281 285.902344 86.21875 284.136719 84.617188 C 282.371094 83.019531 280.566406 81.460938 278.722656 79.949219 C 276.878906 78.4375 275.003906 76.96875 273.089844 75.550781 C 271.171875 74.128906 269.226562 72.757812 267.246094 71.433594 C 265.261719 70.109375 263.25 68.832031 261.207031 67.605469 C 259.160156 66.382812 257.089844 65.207031 254.988281 64.082031 C 252.886719 62.957031 250.757812 61.886719 248.601562 60.867188 C 246.449219 59.84375 244.269531 58.878906 242.070312 57.964844 C 239.867188 57.050781 237.644531 56.195312 235.402344 55.390625 C 233.15625 54.585938 230.894531 53.835938 228.613281 53.144531 C 226.332031 52.449219 224.039062 51.8125 221.726562 51.234375 C 219.414062 50.652344 217.089844 50.128906 214.75 49.664062 C 212.414062 49.195312 210.066406 48.789062 207.710938 48.4375 C 205.351562 48.085938 202.988281 47.789062 200.617188 47.554688 C 198.242188 47.320312 195.867188 47.144531 193.488281 47.023438 C 191.105469 46.90625 188.722656 46.84375 186.339844 46.84375 Z M 186.339844 46.84375 " fill-opacity="1" fill-rule="nonzero"/></g><path fill="#4042e2" d="M 176.390625 109.332031 L 99.253906 181.640625 C 98.558594 182.292969 97.933594 183.007812 97.378906 183.785156 C 96.820312 184.5625 96.347656 185.386719 95.953125 186.257812 C 95.558594 187.128906 95.253906 188.027344 95.039062 188.957031 C 94.824219 189.890625 94.699219 190.832031 94.671875 191.785156 C 94.640625 192.742188 94.703125 193.691406 94.859375 194.632812 C 95.015625 195.574219 95.261719 196.492188 95.597656 197.386719 C 95.9375 198.28125 96.359375 199.132812 96.863281 199.945312 C 97.367188 200.753906 97.949219 201.507812 98.601562 202.207031 C 99.253906 202.902344 99.96875 203.527344 100.746094 204.085938 C 101.523438 204.640625 102.347656 205.117188 103.21875 205.511719 C 104.085938 205.902344 104.988281 206.207031 105.917969 206.425781 C 106.847656 206.640625 107.792969 206.765625 108.746094 206.796875 C 109.703125 206.828125 110.648438 206.765625 111.59375 206.609375 C 112.535156 206.453125 113.453125 206.207031 114.347656 205.871094 C 115.242188 205.53125 116.09375 205.113281 116.90625 204.605469 C 117.714844 204.101562 118.46875 203.523438 119.167969 202.871094 L 170.808594 154.449219 L 170.808594 265.132812 C 170.808594 273.183594 177.761719 279.621094 186.339844 279.621094 C 194.921875 279.621094 201.875 273.183594 201.875 265.132812 L 201.875 154.449219 L 253.511719 202.871094 C 254.210938 203.523438 254.964844 204.105469 255.777344 204.609375 C 256.585938 205.117188 257.441406 205.539062 258.332031 205.875 C 259.226562 206.214844 260.148438 206.460938 261.089844 206.617188 C 262.035156 206.777344 262.984375 206.839844 263.9375 206.808594 C 264.894531 206.777344 265.835938 206.65625 266.769531 206.4375 C 267.699219 206.222656 268.601562 205.917969 269.472656 205.523438 C 270.34375 205.128906 271.167969 204.65625 271.945312 204.097656 C 272.722656 203.542969 273.4375 202.914062 274.09375 202.21875 C 274.746094 201.519531 275.328125 200.765625 275.832031 199.953125 C 276.335938 199.140625 276.757812 198.289062 277.09375 197.394531 C 277.433594 196.5 277.679688 195.582031 277.835938 194.636719 C 277.992188 193.695312 278.054688 192.746094 278.023438 191.789062 C 277.992188 190.835938 277.867188 189.890625 277.652344 188.960938 C 277.433594 188.027344 277.128906 187.128906 276.734375 186.257812 C 276.339844 185.386719 275.863281 184.5625 275.308594 183.785156 C 274.75 183.007812 274.121094 182.292969 273.425781 181.640625 L 196.289062 109.332031 C 195.621094 108.703125 194.902344 108.140625 194.128906 107.648438 C 193.355469 107.15625 192.542969 106.738281 191.691406 106.402344 C 190.839844 106.0625 189.964844 105.804688 189.066406 105.632812 C 188.164062 105.460938 187.257812 105.375 186.339844 105.375 C 185.425781 105.375 184.515625 105.460938 183.617188 105.632812 C 182.714844 105.804688 181.839844 106.0625 180.988281 106.402344 C 180.136719 106.738281 179.324219 107.15625 178.550781 107.648438 C 177.777344 108.140625 177.058594 108.703125 176.390625 109.332031 Z M 176.390625 109.332031 " fill-opacity="1" fill-rule="nonzero"/></svg>