<svg xmlns="http://www.w3.org/2000/svg" xmlns:xlink="http://www.w3.org/1999/xlink" width="500" zoomAndPan="magnify" viewBox="0 0 375 374.999991" height="500" preserveAspectRatio="xMidYMid meet" version="1.0"><defs><clipPath id="79f5c8beb1"><path d="M 10.632812 10.632812 L 364.632812 10.632812 L 364.632812 364.632812 L 10.632812 364.632812 Z M 10.632812 10.632812 " clip-rule="nonzero"/></clipPath></defs><g clip-path="url(#79f5c8beb1)"><path fill="#4042e2" d="M 312.558594 62.433594 C 279.152344 29.027344 234.742188 10.632812 187.496094 10.632812 C 140.253906 10.632812 95.839844 29.027344 62.433594 62.433594 C 29.027344 95.839844 10.632812 140.253906 10.632812 187.496094 C 10.632812 234.738281 29.027344 279.152344 62.433594 312.558594 C 95.839844 345.964844 140.253906 364.363281 187.496094 364.363281 C 234.742188 364.363281 279.152344 345.964844 312.558594 312.558594 C 345.964844 279.152344 364.363281 234.742188 364.363281 187.496094 C 364.363281 140.253906 345.964844 95.839844 312.558594 62.433594 Z M 312.558594 62.433594 " fill-opacity="1" fill-rule="nonzero"/></g><path fill="#ffffff" d="M 229.734375 103.492188 C 231.121094 104.875 232.429688 106.324219 233.671875 107.835938 C 234.914062 109.347656 236.078125 110.917969 237.164062 112.542969 C 238.25 114.167969 239.253906 115.847656 240.179688 117.570312 C 241.101562 119.296875 241.9375 121.0625 242.683594 122.871094 C 243.433594 124.679688 244.089844 126.519531 244.660156 128.390625 C 245.226562 130.261719 245.703125 132.15625 246.082031 134.074219 C 246.464844 135.996094 246.753906 137.925781 246.945312 139.875 C 247.136719 141.820312 247.230469 143.773438 247.230469 145.730469 C 247.230469 147.6875 247.136719 149.636719 246.945312 151.585938 C 246.753906 153.53125 246.464844 155.464844 246.082031 157.382812 C 245.703125 159.300781 245.226562 161.195312 244.660156 163.070312 C 244.089844 164.941406 243.433594 166.78125 242.683594 168.589844 C 241.9375 170.394531 241.101562 172.164062 240.179688 173.886719 C 239.253906 175.613281 238.25 177.289062 237.164062 178.914062 C 236.078125 180.542969 234.914062 182.113281 233.671875 183.625 C 232.429688 185.136719 231.117188 186.585938 229.734375 187.96875 C 228.351562 189.351562 226.90625 190.664062 225.390625 191.902344 C 223.878906 193.144531 222.3125 194.308594 220.683594 195.394531 C 219.058594 196.484375 217.382812 197.488281 215.65625 198.410156 C 213.929688 199.332031 212.164062 200.167969 210.355469 200.917969 C 208.550781 201.664062 206.710938 202.324219 204.835938 202.890625 C 202.964844 203.457031 201.070312 203.933594 199.152344 204.316406 C 197.230469 204.695312 195.300781 204.984375 193.351562 205.175781 C 191.40625 205.367188 189.453125 205.464844 187.496094 205.464844 C 185.542969 205.464844 183.589844 205.367188 181.644531 205.175781 C 179.695312 204.984375 177.761719 204.695312 175.84375 204.316406 C 173.925781 203.933594 172.03125 203.457031 170.15625 202.890625 C 168.285156 202.324219 166.445312 201.664062 164.636719 200.917969 C 162.832031 200.167969 161.066406 199.332031 159.339844 198.410156 C 157.613281 197.488281 155.9375 196.484375 154.3125 195.394531 C 152.683594 194.308594 151.117188 193.144531 149.601562 191.902344 C 148.089844 190.664062 146.644531 189.351562 145.257812 187.96875 C 143.875 186.585938 142.5625 185.136719 141.324219 183.625 C 140.082031 182.113281 138.917969 180.542969 137.832031 178.914062 C 136.742188 177.289062 135.738281 175.613281 134.816406 173.886719 C 133.894531 172.164062 133.058594 170.394531 132.3125 168.589844 C 131.5625 166.78125 130.902344 164.941406 130.335938 163.070312 C 129.769531 161.195312 129.292969 159.300781 128.910156 157.382812 C 128.53125 155.464844 128.242188 153.53125 128.050781 151.585938 C 127.859375 149.636719 127.765625 147.6875 127.765625 145.730469 C 127.765625 143.773438 127.859375 141.820312 128.050781 139.875 C 128.242188 137.925781 128.53125 135.996094 128.910156 134.074219 C 129.292969 132.15625 129.769531 130.261719 130.335938 128.390625 C 130.902344 126.519531 131.5625 124.679688 132.3125 122.871094 C 133.058594 121.0625 133.894531 119.296875 134.816406 117.570312 C 135.738281 115.847656 136.742188 114.167969 137.832031 112.542969 C 138.917969 110.917969 140.082031 109.347656 141.324219 107.835938 C 142.5625 106.324219 143.875 104.875 145.257812 103.492188 C 146.644531 102.109375 148.089844 100.796875 149.601562 99.554688 C 151.117188 98.3125 152.683594 97.148438 154.3125 96.0625 C 155.9375 94.976562 157.613281 93.972656 159.339844 93.050781 C 161.066406 92.125 162.832031 91.292969 164.636719 90.542969 C 166.445312 89.792969 168.285156 89.136719 170.15625 88.566406 C 172.03125 88 173.925781 87.523438 175.84375 87.144531 C 177.761719 86.761719 179.695312 86.476562 181.644531 86.285156 C 183.589844 86.089844 185.542969 85.996094 187.496094 85.996094 C 189.453125 85.996094 191.40625 86.089844 193.351562 86.285156 C 195.300781 86.476562 197.230469 86.761719 199.152344 87.144531 C 201.070312 87.523438 202.964844 88 204.835938 88.566406 C 206.710938 89.136719 208.550781 89.792969 210.355469 90.542969 C 212.164062 91.292969 213.929688 92.125 215.65625 93.050781 C 217.382812 93.972656 219.058594 94.976562 220.683594 96.0625 C 222.3125 97.148438 223.878906 98.3125 225.390625 99.554688 C 226.90625 100.796875 228.351562 102.109375 229.734375 103.492188 Z M 229.734375 103.492188 " fill-opacity="1" fill-rule="nonzero"/><path fill="#ffffff" d="M 189.222656 232.007812 L 185.773438 232.007812 C 136.964844 232.007812 95.863281 264.957031 83.476562 309.828125 C 111.527344 333.714844 147.855469 348.15625 187.496094 348.15625 C 227.140625 348.15625 263.46875 333.714844 291.515625 309.828125 C 279.128906 264.960938 238.03125 232.007812 189.21875 232.007812 Z M 189.222656 232.007812 " fill-opacity="1" fill-rule="nonzero"/></svg>